<svg width="187" height="118" viewBox="0 0 187 118" fill="none" xmlns="http://www.w3.org/2000/svg">
<g clip-path="url(#clip0_303_108)">
<path d="M36.1155 35.3565C33.2479 34.5546 33.3188 34.5913 34.6829 32.0757C45.9993 7.61683 7.03373 3.42912 0.980735 24.9397C0.523582 26.7561 0.846278 28.0005 2.64311 28.8512C9.31216 31.8753 7.44688 17.0435 20.7899 16.7599C31.808 15.6745 32.1649 30.2202 23.4154 34.3101C19.7484 36.6986 20.9512 28.0249 19.8071 26.1352C19.1764 23.7345 17.1962 22.6271 15.062 23.116C9.92821 24.8664 14.4362 34.0168 14.3531 38.1336C15.5485 45.6901 16.673 53.2587 17.9589 60.8005C18.3965 63.3968 20.1078 64.4309 22.6405 64.0837C27.4858 63.1303 24.3762 55.7523 24.21 52.0095C24.2019 51.7757 24.1766 51.5429 24.1342 51.3128C23.8897 49.9169 23.9264 48.9879 23.5132 47.2204C21.8826 40.2287 22.132 41.4632 27.6863 40.6443C32.9081 39.6468 39.0589 42.292 40.8875 47.6654C50.0501 69.7065 9.93555 81.7513 10.3291 58.6932C10.4807 57.0431 10.6494 55.4932 8.73277 54.64C6.04364 53.4397 3.53541 55.1289 3.06359 58.4341C2.15417 64.8954 5.19534 69.5989 9.92821 73.3612C24.5962 83.4406 49.1235 73.5788 49.324 53.1267C49.2164 45.3038 43.6646 37.4687 36.1155 35.3565Z" fill="#7FC6BA"/>
<path d="M65.2901 79.2382C63.4713 77.6492 61.54 76.153 60.325 74.0091C57.9219 70.6012 60.5817 65.7314 64.8599 66.5528C68.7273 66.2301 69.649 73.3001 73.5311 70.6085C75.1983 69.4644 74.6507 68.0588 73.91 66.6775C68.6026 56.5273 49.5758 61.8395 54.2989 74.3C57.4427 81.8247 65.9624 85.015 69.2896 92.5299C78.4766 106.45 57.6994 120.602 49.2604 107.288C47.3414 102.714 51.2431 97.2285 56.5309 96.9278C57.895 96.852 59.2029 97.1967 60.5377 97.3068C66.4953 97.2041 64.5005 90.8968 57.5772 91.7402C44.9138 90.8528 37.1031 106.621 48.2019 114.578C61.0608 124.059 82.5617 111.716 76.3376 94.3732C74.2107 88.2273 70.1061 83.4553 65.2901 79.2382Z" fill="#7FC6BA"/>
<path d="M138.703 67.6089C138.598 67.6334 138.496 67.6652 138.391 67.6945C136.674 68.1245 135.061 68.8924 133.645 69.9534C131.945 71.195 130.549 72.8067 129.563 74.6667C127.5 78.5366 134.032 79.9227 135.821 76.4195C136.48 75.5295 137.285 74.7574 138.202 74.1362C145.94 69.6894 153.87 78.0819 150.022 85.8584C148.272 89.7698 145.414 92.3001 140.977 92.657C137.75 93.1581 141.38 83.8953 141.649 82.1449C142.353 80.0254 141.466 78.2872 139.63 77.7445C134.706 76.7789 134.638 85.8608 133.795 89.2345C133.951 92.1069 129.754 89.4789 129.362 92.8428C129.054 94.7325 130.445 95.5637 131.807 96.2873C132.584 96.7005 133.091 97.1283 133.064 98.0817C132.981 103.492 132.648 108.951 133.425 114.322C133.807 116.341 135.276 117.116 137.092 116.862C138.804 116.617 139.207 115.326 139.112 113.608C138.889 109.625 138.867 105.628 138.823 101.629C138.782 98.4997 138.823 98.4997 142.001 98.133C149.88 97.2212 155.616 91.7769 156.789 82.7805C158.002 73.2317 147.788 65.5799 138.703 67.6089Z" fill="#7FC6BA"/>
<path d="M91.2158 47.2766C91.2354 47.2766 90.9054 55.5665 85.0846 54.4102C83.3367 54.1021 81.5129 54.8233 81.1145 56.6568C80.3664 62.3822 92.4968 62.37 94.8926 57.4342C96.2004 55.207 96.9174 52.6824 96.9755 50.1002C97.105 42.0328 97.2395 40.9987 97.2688 32.9338C96.6797 29.1519 105.478 32.6698 105.894 27.3111C104.532 21.2116 97.0537 26.9664 97.3373 23.8103C96.6821 4.55854 104.583 17.8502 109.143 11.5258C110.199 4.83479 92.6117 4.38497 91.0814 14.0903C90.5998 17.195 91.2158 47.2766 91.2158 47.2766Z" fill="#7FC6BA"/>
<path d="M63.1339 52.1171C62.9154 52.4664 62.7962 52.8687 62.7892 53.2807C62.7892 54.6179 63.9798 55.3293 65.2045 55.8501C65.2708 55.8789 65.3385 55.9042 65.4075 55.9258C84.5956 62.2453 77.6748 37.5908 78.9729 26.8759C78.9851 26.7712 78.99 26.6658 78.9876 26.5605C78.9729 23.0866 83.5518 25.304 85.6517 23.5071C85.7744 23.4018 85.911 23.3138 86.0575 23.2455C88.7613 21.9743 87.5023 17.7622 84.4856 17.9382C83.1313 17.9724 81.7818 18.1558 80.4275 18.2535C79.6696 18.3073 78.9754 18.3195 78.9729 17.2023C78.9534 13.1515 78.6282 4.88855 84.7888 6.61448C84.892 6.64576 84.9932 6.68332 85.0919 6.72694C88.9129 8.37953 93.5162 5.79307 89.8101 2.08207C89.7199 1.99283 89.6226 1.91107 89.5192 1.8376C85.2899 -1.184 77.9168 0.0187734 74.6947 4.13315C74.5456 4.32383 74.3183 4.44117 74.1838 4.64164C73.6729 5.37504 72.4725 6.86384 72.6363 17.7133C72.8466 31.2494 72.9004 39.2263 72.9004 39.2263C72.9004 39.2263 72.8637 39.7446 72.8441 40.1675C72.8246 40.5905 72.8221 40.9792 72.8441 41.3899C73.5409 56.779 67.0747 45.6265 63.1339 52.1171Z" fill="#7FC6BA"/>
<path d="M51.71 43.8786C59.1271 52.3445 68.9522 44.4629 68.4682 34.5717C68.2946 30.4647 69.6685 22.1651 63.6327 22.6393C61.3909 22.8422 60.699 24.3286 60.7455 26.3381C61.2638 28.619 62.0021 45.36 56.9416 39.2239C54.2989 35.0338 53.656 30.076 52.5412 25.3602C51.7907 20.8352 44.6792 21.8937 45.4688 26.5386C46.2829 32.7749 47.4587 39.0064 51.71 43.8786Z" fill="#7FC6BA"/>
<path d="M78.9436 86.824C81.5227 105.032 104.987 94.2607 98.1342 77.7959C90.1548 67.1812 78.2273 76.9403 78.9436 86.824ZM91.9003 89.1269C90.0668 91.8674 83.7571 90.2833 84.5297 86.8167C84.1801 84.2669 87.0183 81.0669 89.3237 79.8201C94.1445 78.0379 94.2277 87.1394 91.9052 89.122L91.9003 89.1269Z" fill="#7FC6BA"/>
<path d="M124.478 73.6693C122.314 71.4226 121.852 71.3468 119.163 72.9579C118.518 73.3466 117.926 73.283 117.303 72.9994C110.912 70.0927 103.344 77.2898 102.657 82.3992C100.862 91.3858 108.954 98.6855 116.655 94.2411C118.308 93.3073 119.393 92.6252 120.691 94.823C122.554 97.9497 127.908 94.823 125.214 91.6742C121.227 86.0588 126.426 79.5096 124.478 73.6693ZM114.985 90.2172C104.962 96.7982 108.385 75.3536 115.741 76.8278C119.686 79.3678 117.692 87.8483 114.985 90.2172Z" fill="#7FC6BA"/>
<path d="M140.786 48.2521C137.496 45.8074 135.195 49.7189 133.237 51.8873C125.287 59.4095 120.107 46.9442 120.241 40.0845C119.664 32.2175 120.058 27.2646 123.833 20.1971C125.901 15.5376 133.968 6.27473 137.427 14.5597C140.385 25.9592 149.92 17.1486 141.234 8.78785C136.457 4.2261 130.189 4.20654 124.422 9.22788C112.262 20.5956 109.509 38.004 117.073 52.8065C124.913 68.467 146.345 54.5642 140.786 48.2521Z" fill="#7FC6BA"/>
<path d="M184.081 33.6477C180.253 32.5842 181.341 42.6734 178.872 45.4505C178.383 46.2719 175.205 47.592 174.254 47.3207C173.437 47.0884 173.337 46.1521 173.32 45.2501C173.32 44.8687 173.278 44.4849 173.247 44.1035C172.941 40.5905 177.195 35.3883 173.002 33.5597C166.008 31.071 163.402 56.784 177.031 52.5938C180.172 51.3348 175.508 59.1309 175.212 60.1381C173.325 63.6266 171.078 64.2524 167.56 62.5118C166.309 61.8933 165.116 61.1404 163.649 61.1159C161.524 60.9057 159.918 63.9469 161.681 65.245C180.224 79.1649 185.702 52.1587 186.773 38.6861C187 36.1437 186.066 33.8017 184.081 33.6477Z" fill="#7FC6BA"/>
<path d="M144.756 47.5309C145.074 50.5647 144.133 57.84 149.712 57.2313C152.11 57.0113 152.479 55.6276 152.276 53.8748C151.501 49.1224 151.152 44.4139 152.42 39.6811C153.675 35.4713 146.597 33.9312 145.685 38.3292C144.822 41.315 144.507 44.4327 144.756 47.5309V47.5309Z" fill="#7FC6BA"/>
<path d="M149.597 32.2248C151.614 31.4303 155.728 31.2469 155.012 28.1349C154.442 26.2696 152.87 25.4751 151.254 25.2991C147.871 25.7196 147.832 28.2816 147.382 30.5038C146.617 33.6501 147.189 34.2099 149.597 32.2248Z" fill="#7FC6BA"/>
<path d="M163.025 48.5845C162.781 47.2595 162.228 41.0305 163.747 35.2782C164.236 33.4276 166.722 28.4454 166.722 28.4454C167.729 27.4333 168.863 28.0029 171.592 28.6898C173.32 29.1299 179.224 30.1713 183.17 27.8758C186.304 26.0545 184.463 21.4292 181.092 22.4975C177.009 23.803 175.892 23.2994 170.885 22.1626C168.57 21.637 173.058 16.2709 174.1 14.6208C176.855 10.2668 171.237 6.98121 168.602 11.1371C166.986 13.418 165.143 15.8089 163.91 18.3147C163.365 19.449 160.026 16.4738 156.706 14.8433C154.34 13.6796 152.511 13.0293 151.176 16.1023C149.079 20.9403 160.979 22.8153 159.928 25.6707C156.447 35.1193 155.359 45.7169 157.034 53.5765C157.459 55.679 158.989 56.7937 161.084 56.3904C164.705 55.5518 163.637 51.8042 163.025 48.5845Z" fill="#7FC6BA"/>
</g>
<defs>
<clipPath id="clip0_303_108">
<rect width="186" height="117.728" fill="white" transform="translate(0.794952 0.136108)"/>
</clipPath>
</defs>
</svg>
